<svg width="34" height="34" viewBox="0 0 34 34" fill="none" xmlns="http://www.w3.org/2000/svg">
<path d="M31.3438 20.7177V11.7256C30.1956 12.9448 29.2216 14.2159 28.4035 15.5614C29.0203 16.4433 29.3516 17.4895 29.3516 18.5927C29.3516 21.5221 26.9685 23.9052 24.0391 23.9052C21.1097 23.9052 18.7266 21.5221 18.7266 18.5927C18.7266 16.7702 19.6601 15.1048 21.1418 14.1399C20.221 11.1114 19.0708 8.47951 17 5.97993C14.929 8.47951 13.779 11.1114 12.8582 14.1399C14.3396 15.1048 15.2734 16.7699 15.2734 18.5927C15.2734 21.5221 12.8903 23.9052 9.96094 23.9052C7.03154 23.9052 4.64844 21.5221 4.64844 18.5927C4.64844 17.4895 4.97969 16.4433 5.59654 15.5614C4.7784 14.2159 3.80461 12.9448 2.65625 11.7256V27.3583C2.65625 28.0906 3.25209 28.6865 3.98438 28.6865H30.0156C30.7479 28.6865 31.3438 28.0906 31.3438 27.3583C31.3438 26.6248 31.9383 26.0302 32.6719 26.0302C33.4055 26.0302 34 26.6248 34 27.3583C34 29.5555 32.2127 31.3427 30.0156 31.3427H3.98438C1.78726 31.3427 0 29.5555 0 27.3583V8.63177C0 8.11298 0.3022 7.64165 0.773529 7.42505C1.24512 7.20819 1.79945 7.28601 2.19296 7.62401C4.85103 9.90517 6.87434 12.3394 8.37834 15.0651C8.66991 15.5938 8.56848 16.2527 8.13087 16.669C7.59807 17.1759 7.30469 17.8591 7.30469 18.5927C7.30469 20.0573 8.49637 21.249 9.96094 21.249C11.4255 21.249 12.6172 20.0573 12.6172 18.5927C12.6172 17.4641 11.9012 16.456 10.8356 16.0846C10.1729 15.8535 9.80452 15.1466 9.9944 14.4709C11.0434 10.7394 12.5018 6.77525 16.0389 3.06662C16.0462 3.0591 16.0542 3.05261 16.0618 3.04509C16.0693 3.03757 16.0758 3.02953 16.0833 3.02226C16.0921 3.01396 16.1014 3.00696 16.1103 2.99892C16.1279 2.98309 16.1455 2.96779 16.1637 2.953C16.1803 2.93951 16.1969 2.92654 16.214 2.91409C16.2327 2.90034 16.2519 2.88686 16.2711 2.87415C16.2887 2.86247 16.3066 2.85132 16.3248 2.84068C16.344 2.82927 16.3637 2.81812 16.3837 2.80774C16.4026 2.79788 16.4218 2.78854 16.441 2.77946C16.4607 2.77039 16.4807 2.76157 16.5007 2.75352C16.5206 2.74522 16.5409 2.7377 16.5614 2.7307C16.5813 2.72369 16.6016 2.71695 16.6218 2.71098C16.6425 2.70502 16.6636 2.69931 16.6846 2.69412C16.7051 2.68919 16.7256 2.68478 16.746 2.68063C16.7671 2.67648 16.7883 2.67311 16.8096 2.67C16.8306 2.66689 16.8516 2.66429 16.8729 2.66222C16.8936 2.6604 16.9147 2.65884 16.9357 2.65781C16.9575 2.65677 16.979 2.65625 17.0008 2.65625C17.0213 2.65625 17.0418 2.65677 17.062 2.65781C17.0843 2.65858 17.1066 2.6604 17.1287 2.66248C17.1486 2.66429 17.1684 2.66689 17.1881 2.66948C17.2106 2.67285 17.2332 2.67648 17.2555 2.68089C17.275 2.68478 17.2942 2.68893 17.3134 2.6936C17.3357 2.69905 17.3577 2.70502 17.3798 2.7115C17.399 2.71721 17.4179 2.72343 17.4366 2.72992C17.4581 2.73744 17.4794 2.74548 17.5004 2.75404C17.5196 2.76183 17.5385 2.77013 17.5574 2.77895C17.5774 2.78828 17.5974 2.79814 17.6171 2.80852C17.6363 2.81863 17.6552 2.82901 17.6739 2.84016C17.6926 2.85132 17.711 2.86273 17.7292 2.87466C17.7481 2.88712 17.7668 2.90034 17.7849 2.91383C17.8023 2.92654 17.8194 2.93951 17.8363 2.95326C17.8542 2.96779 17.8718 2.98309 17.889 2.99892C17.898 3.00696 17.9074 3.01396 17.9162 3.02226C17.924 3.02953 17.9305 3.03783 17.938 3.04509C17.9453 3.05261 17.9533 3.0591 17.9608 3.06688C21.4977 6.77525 22.9563 10.7394 24.0053 14.4711C24.1952 15.1469 23.8269 15.8535 23.1641 16.0846C22.0988 16.4563 21.3828 17.4641 21.3828 18.5927C21.3828 20.0573 22.5745 21.249 24.0391 21.249C25.5036 21.249 26.6953 20.0573 26.6953 18.5927C26.6953 17.8591 26.4019 17.1759 25.8691 16.669C25.4315 16.2527 25.3301 15.5938 25.6217 15.0651C27.1257 12.3391 29.149 9.90517 31.807 7.62401C32.2005 7.28627 32.7549 7.20819 33.2265 7.42505C33.6978 7.64165 34 8.11298 34 8.63177V20.7177C34 21.4513 33.4055 22.0458 32.6719 22.0458C31.9383 22.0458 31.3438 21.4513 31.3438 20.7177ZM15.3398 25.3661C15.3398 26.2831 16.083 27.0263 17 27.0263C17.917 27.0263 18.6602 26.2831 18.6602 25.3661C18.6602 24.4494 17.917 23.706 17 23.706C16.083 23.706 15.3398 24.4494 15.3398 25.3661ZM4.64844 25.9638C4.64844 26.6974 5.24298 27.2919 5.97656 27.2919C6.71014 27.2919 7.30469 26.6974 7.30469 25.9638C7.30469 25.2302 6.71014 24.6357 5.97656 24.6357C5.24298 24.6357 4.64844 25.2302 4.64844 25.9638ZM26.6953 25.9638C26.6953 26.6974 27.2899 27.2919 28.0234 27.2919C28.757 27.2919 29.3516 26.6974 29.3516 25.9638C29.3516 25.2302 28.757 24.6357 28.0234 24.6357C27.2899 24.6357 26.6953 25.2302 26.6953 25.9638Z" fill="white"/>
</svg>
